<svg width="27" height="26" viewBox="0 0 27 26" fill="none" xmlns="http://www.w3.org/2000/svg">
<rect width="27" height="26" rx="5" fill="#EF2C5A"/>
<path d="M16.9739 20.9995C15.4098 20.9995 14.0059 20.0009 13.4367 18.484L12.6996 16.5214C12.624 16.3431 12.5436 16.2277 12.4586 16.1741C12.373 16.1205 12.2344 16.0938 12.0428 16.0938H11.7146L11.5204 17.7529C11.303 19.6061 9.79247 20.9995 8 20.9995L9.50527 8.24605C9.72369 6.3928 11.2353 5 13.0282 5L11.9714 13.9671H12.1866C12.3646 13.9671 12.5079 13.9387 12.6177 13.8818C12.7269 13.8249 12.8366 13.7216 12.9458 13.5717L14.4878 11.3712C15.12 10.4695 16.1249 9.93359 17.1965 9.92757L19 9.91664L16.0241 13.8605C15.8871 14.0458 15.7369 14.2099 15.5726 14.3521C15.4082 14.4948 15.2371 14.6195 15.0596 14.7261C15.2035 14.8475 15.3279 14.988 15.434 15.1483C15.54 15.3085 15.634 15.4922 15.7159 15.6989L17.8502 21H16.9739V20.9995Z" fill="white"/>
</svg>
